<svg width="33" height="33" viewBox="0 0 33 33" fill="none" xmlns="http://www.w3.org/2000/svg">
<path d="M19.3183 8.25C20.6613 8.51203 21.8956 9.16885 22.8631 10.1364C23.8307 11.104 24.4875 12.3382 24.7495 13.6813M19.3183 2.75C22.1085 3.05997 24.7105 4.30949 26.6969 6.29339C28.6833 8.27728 29.936 10.8776 30.2495 13.6675M14.0616 19.0617C12.4095 17.4096 11.1049 15.5414 10.1479 13.5482C10.0656 13.3767 10.0244 13.291 9.99278 13.1825C9.88041 12.7971 9.96113 12.3237 10.1949 11.9972C10.2607 11.9054 10.3393 11.8268 10.4964 11.6696C10.9772 11.1889 11.2175 10.9485 11.3746 10.7068C11.9673 9.79537 11.9673 8.62032 11.3747 7.70884C11.2175 7.46715 10.9772 7.2268 10.4964 6.74609L10.2285 6.47814C9.49776 5.74741 9.1324 5.38204 8.74 5.18357C7.9596 4.78885 7.03799 4.78885 6.25759 5.18357C5.86519 5.38204 5.49983 5.74741 4.76909 6.47814L4.55235 6.69489C3.82411 7.42312 3.46 7.78724 3.18191 8.28228C2.87333 8.8316 2.65146 9.68478 2.65333 10.3148C2.65502 10.8826 2.76516 11.2707 2.98545 12.0468C4.16928 16.2177 6.40293 20.1535 9.68641 23.4369C12.9699 26.7204 16.9056 28.9541 21.0765 30.1379C21.8527 30.3582 22.2407 30.4683 22.8085 30.47C23.4386 30.4719 24.2917 30.25 24.8411 29.9414C25.3361 29.6634 25.7002 29.2992 26.4285 28.571L26.6452 28.3543C27.3759 27.6235 27.7413 27.2582 27.9398 26.8658C28.3345 26.0854 28.3345 25.1637 27.9398 24.3834C27.7413 23.991 27.3759 23.6256 26.6452 22.8949L26.3773 22.6269C25.8966 22.1462 25.6562 21.9058 25.4145 21.7487C24.503 21.1561 23.328 21.1561 22.4165 21.7487C22.1748 21.9058 21.9345 22.1462 21.4538 22.6269C21.2966 22.7841 21.218 22.8627 21.1261 22.9285C20.7996 23.1622 20.3263 23.2429 19.9408 23.1306C19.8323 23.0989 19.7466 23.0578 19.5752 22.9755C17.5819 22.0185 15.7138 20.7139 14.0616 19.0617Z" stroke="white" stroke-width="2" stroke-linecap="round" stroke-linejoin="round"/>
</svg>
