<svg width="19" height="19" viewBox="0 0 19 19" fill="none" xmlns="http://www.w3.org/2000/svg">
<path d="M3.95833 11.3101C2.49267 11.9566 1.58333 12.8576 1.58333 13.8542C1.58333 15.8217 5.12774 17.4167 9.49999 17.4167C13.8722 17.4167 17.4167 15.8217 17.4167 13.8542C17.4167 12.8576 16.5073 11.9566 15.0417 11.3101M14.25 6.33337C14.25 9.55048 10.6875 11.0834 9.49999 13.4584C8.31249 11.0834 4.74999 9.55048 4.74999 6.33337C4.74999 3.71002 6.87664 1.58337 9.49999 1.58337C12.1233 1.58337 14.25 3.71002 14.25 6.33337ZM10.2917 6.33337C10.2917 6.7706 9.93722 7.12504 9.49999 7.12504C9.06277 7.12504 8.70833 6.7706 8.70833 6.33337C8.70833 5.89615 9.06277 5.54171 9.49999 5.54171C9.93722 5.54171 10.2917 5.89615 10.2917 6.33337Z" stroke="white" stroke-linecap="round" stroke-linejoin="round"/>
</svg>
