<svg width="19" height="19" viewBox="0 0 19 19" fill="none" xmlns="http://www.w3.org/2000/svg">
<path d="M11.1226 4.75004C11.8959 4.90091 12.6065 5.27908 13.1636 5.83616C13.7207 6.39324 14.0989 7.10388 14.2497 7.87712M11.1226 1.58337C12.7292 1.76184 14.2272 2.48126 15.3709 3.62351C16.5146 4.76575 17.2359 6.26292 17.4164 7.86921M8.09608 10.975C7.14484 10.0237 6.39371 8.94813 5.84271 7.80051C5.79532 7.7018 5.77162 7.65245 5.75342 7.58999C5.68872 7.36804 5.73519 7.0955 5.86978 6.90754C5.90766 6.85465 5.9529 6.8094 6.0434 6.7189C6.32017 6.44213 6.45856 6.30374 6.54903 6.16459C6.89024 5.6398 6.89024 4.96325 6.54904 4.43847C6.45856 4.29931 6.32017 4.16092 6.0434 3.88415L5.88913 3.72988C5.4684 3.30915 5.25804 3.09879 5.03212 2.98452C4.5828 2.75725 4.05217 2.75725 3.60285 2.98452C3.37692 3.09879 3.16656 3.30915 2.74584 3.72988L2.62104 3.85467C2.20176 4.27396 1.99212 4.4836 1.832 4.76863C1.65434 5.0849 1.52659 5.57612 1.52767 5.93888C1.52864 6.2658 1.59206 6.48923 1.71889 6.93608C2.40049 9.33752 3.68653 11.6036 5.57702 13.494C7.4675 15.3845 9.73354 16.6706 12.135 17.3522C12.5818 17.479 12.8053 17.5424 13.1322 17.5434C13.4949 17.5445 13.9862 17.4167 14.3024 17.2391C14.5875 17.0789 14.7971 16.8693 15.2164 16.45L15.3412 16.3252C15.7619 15.9045 15.9723 15.6941 16.0865 15.4682C16.3138 15.0189 16.3138 14.4883 16.0865 14.0389C15.9723 13.813 15.7619 13.6027 15.3412 13.1819L15.1869 13.0277C14.9101 12.7509 14.7717 12.6125 14.6326 12.522C14.1078 12.1808 13.4313 12.1808 12.9065 12.522C12.7673 12.6125 12.6289 12.7509 12.3522 13.0277C12.2617 13.1182 12.2164 13.1634 12.1635 13.2013C11.9756 13.3359 11.703 13.3823 11.4811 13.3176C11.4186 13.2994 11.3693 13.2757 11.2705 13.2283C10.1229 12.6773 9.04733 11.9262 8.09608 10.975Z" stroke="white" stroke-linecap="round" stroke-linejoin="round"/>
</svg>
