<svg width="47" height="47" viewBox="0 0 47 47" fill="none" xmlns="http://www.w3.org/2000/svg">
<path d="M23.5 33.2917C23.5 38.6995 27.8839 43.0833 33.2917 43.0833C38.6995 43.0833 43.0833 38.6995 43.0833 33.2917C43.0833 27.8839 38.6995 23.5 33.2917 23.5C27.8839 23.5 23.5 27.8839 23.5 33.2917ZM23.5 33.2917C23.5 31.0869 24.2287 29.0524 25.4583 27.4157V9.79167M23.5 33.2917C23.5 34.908 23.8916 36.4328 24.5852 37.7765C22.9354 39.1701 19.1248 40.1458 14.6875 40.1458C8.73893 40.1458 3.91667 38.3923 3.91667 36.2292V9.79167M25.4583 9.79167C25.4583 11.9548 20.6361 13.7083 14.6875 13.7083C8.73893 13.7083 3.91667 11.9548 3.91667 9.79167M25.4583 9.79167C25.4583 7.62855 20.6361 5.875 14.6875 5.875C8.73893 5.875 3.91667 7.62855 3.91667 9.79167M3.91667 27.4167C3.91667 29.5798 8.73893 31.3333 14.6875 31.3333C18.9743 31.3333 22.6762 30.4227 24.4099 29.1043M25.4583 18.6042C25.4583 20.7673 20.6361 22.5208 14.6875 22.5208C8.73893 22.5208 3.91667 20.7673 3.91667 18.6042" stroke="white" stroke-width="2" stroke-linecap="round" stroke-linejoin="round"/>
</svg>
