<svg width="47" height="47" viewBox="0 0 47 47" fill="none" xmlns="http://www.w3.org/2000/svg">
<path d="M41.125 41.125H9.00833C7.91156 41.125 7.36318 41.125 6.94427 40.9116C6.57578 40.7238 6.2762 40.4242 6.08845 40.0557C5.875 39.6368 5.875 39.0884 5.875 37.9917V5.875M41.125 29.375L30.4828 18.7328C30.095 18.345 29.9012 18.1512 29.6776 18.0785C29.4809 18.0146 29.2691 18.0146 29.0724 18.0785C28.8488 18.1512 28.655 18.345 28.2672 18.7328L24.6078 22.3922C24.22 22.78 24.0262 22.9738 23.8026 23.0465C23.6059 23.1104 23.3941 23.1104 23.1974 23.0465C22.9738 22.9738 22.78 22.78 22.3922 22.3922L13.7083 13.7083M41.125 29.375H33.2917M41.125 29.375V21.5417" stroke="white" stroke-width="2" stroke-linecap="round" stroke-linejoin="round"/>
</svg>
