<svg width="47" height="47" viewBox="0 0 47 47" fill="none" xmlns="http://www.w3.org/2000/svg">
<path d="M27.4167 13.7084H31.9938C32.4728 13.7084 32.7123 13.7084 32.9377 13.7625C33.1375 13.8105 33.3285 13.8896 33.5037 13.997C33.7014 14.1181 33.8707 14.2874 34.2094 14.6261L42.1656 22.5823C42.5043 22.921 42.6737 23.0904 42.7948 23.288C42.9021 23.4632 42.9813 23.6542 43.0292 23.8541C43.0834 24.0794 43.0834 24.3189 43.0834 24.7979V30.3542C43.0834 31.2667 43.0834 31.7229 42.9343 32.0828C42.7355 32.5627 42.3543 32.9439 41.8744 33.1427C41.5146 33.2917 41.0583 33.2917 40.1459 33.2917M30.3542 33.2917H27.4167M27.4167 33.2917V14.1C27.4167 11.9065 27.4167 10.8097 26.9898 9.97191C26.6143 9.23494 26.0151 8.63577 25.2782 8.26027C24.4403 7.83337 23.3436 7.83337 21.15 7.83337H10.1834C7.98981 7.83337 6.89305 7.83337 6.05522 8.26027C5.31826 8.63577 4.71908 9.23494 4.34358 9.97191C3.91669 10.8097 3.91669 11.9065 3.91669 14.1V29.3751C3.91669 31.5382 5.67024 33.2917 7.83335 33.2917M27.4167 33.2917H19.5834M19.5834 33.2917C19.5834 36.5364 16.953 39.1667 13.7084 39.1667C10.4637 39.1667 7.83335 36.5364 7.83335 33.2917M19.5834 33.2917C19.5834 30.0471 16.953 27.4167 13.7084 27.4167C10.4637 27.4167 7.83335 30.0471 7.83335 33.2917M40.1459 34.2709C40.1459 36.9748 37.9539 39.1667 35.25 39.1667C32.5461 39.1667 30.3542 36.9748 30.3542 34.2709C30.3542 31.567 32.5461 29.3751 35.25 29.3751C37.9539 29.3751 40.1459 31.567 40.1459 34.2709Z" stroke="white" stroke-width="2" stroke-linecap="round" stroke-linejoin="round"/>
</svg>
