<svg width="33" height="33" viewBox="0 0 33 33" fill="none" xmlns="http://www.w3.org/2000/svg">
<path d="M2.75 9.625L13.9768 17.4837C14.8859 18.1201 15.3404 18.4383 15.8349 18.5615C16.2716 18.6704 16.7284 18.6704 17.1651 18.5615C17.6596 18.4383 18.1141 18.1201 19.0232 17.4837L30.25 9.625M9.35 27.5H23.65C25.9602 27.5 27.1153 27.5 27.9977 27.0504C28.7739 26.6549 29.4049 26.0239 29.8004 25.2477C30.25 24.3653 30.25 23.2102 30.25 20.9V12.1C30.25 9.78978 30.25 8.63468 29.8004 7.75229C29.4049 6.97612 28.7739 6.34508 27.9977 5.9496C27.1153 5.5 25.9602 5.5 23.65 5.5H9.35C7.03978 5.5 5.88468 5.5 5.00229 5.9496C4.22612 6.34508 3.59508 6.97612 3.1996 7.75229C2.75 8.63468 2.75 9.78978 2.75 12.1V20.9C2.75 23.2102 2.75 24.3653 3.1996 25.2477C3.59508 26.0239 4.22612 26.6549 5.00229 27.0504C5.88468 27.5 7.03978 27.5 9.35 27.5Z" stroke="#66803A" stroke-width="2" stroke-linecap="round" stroke-linejoin="round"/>
</svg>
