<svg width="33" height="33" viewBox="0 0 33 33" fill="none" xmlns="http://www.w3.org/2000/svg">
<path d="M6.875 19.6437C4.32938 20.7667 2.75 22.3316 2.75 24.0625C2.75 27.4798 8.90608 30.25 16.5 30.25C24.0939 30.25 30.25 27.4798 30.25 24.0625C30.25 22.3316 28.6706 20.7667 26.125 19.6437M24.75 11C24.75 16.5876 18.5625 19.25 16.5 23.375C14.4375 19.25 8.25 16.5876 8.25 11C8.25 6.44365 11.9437 2.75 16.5 2.75C21.0563 2.75 24.75 6.44365 24.75 11ZM17.875 11C17.875 11.7594 17.2594 12.375 16.5 12.375C15.7406 12.375 15.125 11.7594 15.125 11C15.125 10.2406 15.7406 9.625 16.5 9.625C17.2594 9.625 17.875 10.2406 17.875 11Z" stroke="#66803A" stroke-width="2" stroke-linecap="round" stroke-linejoin="round"/>
</svg>
