<svg width="33" height="33" viewBox="0 0 33 33" fill="none" xmlns="http://www.w3.org/2000/svg">
<path d="M16.5 30.25C24.0939 30.25 30.25 24.0939 30.25 16.5C30.25 8.90608 24.0939 2.75 16.5 2.75C8.90608 2.75 2.75 8.90608 2.75 16.5C2.75 24.0939 8.90608 30.25 16.5 30.25Z" stroke="white" stroke-width="2" stroke-linecap="round" stroke-linejoin="round"/>
<path d="M13.0625 12.3273C13.0625 11.6711 13.0625 11.3429 13.1996 11.1597C13.3192 11.0001 13.5021 10.9002 13.701 10.886C13.9293 10.8697 14.2053 11.0472 14.7573 11.402L21.2482 15.5747C21.7272 15.8827 21.9667 16.0366 22.0494 16.2324C22.1217 16.4035 22.1217 16.5965 22.0494 16.7676C21.9667 16.9634 21.7272 17.1173 21.2482 17.4253L14.7573 21.598C14.2053 21.9528 13.9293 22.1303 13.701 22.114C13.5021 22.0998 13.3192 21.9999 13.1996 21.8403C13.0625 21.6571 13.0625 21.3289 13.0625 20.6727V12.3273Z" stroke="white" stroke-width="2" stroke-linecap="round" stroke-linejoin="round"/>
</svg>
