<svg width="34" height="33" viewBox="0 0 34 33" fill="none" xmlns="http://www.w3.org/2000/svg">
<path d="M33.4501 16.5C33.4501 25.3361 26.2803 32.5 17.435 32.5C15.3038 32.5 13.2709 32.0844 11.4124 31.3302L11.3622 31.3099C11.0437 31.1805 10.8245 31.0915 10.635 31.0491C10.454 31.0086 10.31 30.9926 10.1246 30.9926C9.93049 30.9926 9.72632 31.0266 9.43592 31.0751L9.3938 31.0821L2.86504 32.1692C2.5139 32.2277 2.28364 32.2656 2.10952 32.2787C1.93777 32.2916 1.88567 32.2738 1.87139 32.2677C1.77288 32.2255 1.6945 32.1471 1.65235 32.0489C1.64633 32.0349 1.62848 31.9831 1.64144 31.8116C1.65457 31.6377 1.69245 31.4077 1.75098 31.0569L2.83911 24.5341L2.84616 24.4919C2.89461 24.2018 2.9287 23.9978 2.92868 23.8037C2.92866 23.6184 2.9127 23.4744 2.87212 23.2936C2.82961 23.1041 2.74051 22.885 2.6111 22.5669C2.6044 22.5504 2.59759 22.5337 2.59067 22.5166L2.12747 22.7049L2.59067 22.5166C1.83591 20.6599 1.41992 18.6291 1.41992 16.5C1.41992 7.66388 8.58969 0.5 17.435 0.5C26.2803 0.5 33.4501 7.66388 33.4501 16.5Z" stroke="#66803A" stroke-linecap="round" stroke-linejoin="round"/>
<path d="M22.337 18.2814C22.6723 18.4176 24.5317 19.3256 24.9127 19.5072C25.2937 19.6888 25.5224 19.7645 25.6291 19.9309C25.7357 20.0974 25.7357 20.8389 25.4157 21.7166C25.1109 22.5944 23.602 23.3964 22.8704 23.5023C22.215 23.5931 21.392 23.6385 20.4928 23.351C19.9441 23.1846 19.243 22.9576 18.3438 22.5641C14.564 20.9449 12.0797 17.1616 11.8968 16.9043L11.8938 16.9004C11.6997 16.6435 10.3574 14.8668 10.3574 13.0303C10.3574 11.184 11.3329 10.276 11.6682 9.89771C12.0187 9.51939 12.415 9.42859 12.6741 9.42859H13.4057C13.6343 9.44372 13.9543 9.35292 14.2592 10.0793C14.564 10.836 15.326 12.6822 15.4175 12.8638C15.5089 13.0454 15.5699 13.2573 15.448 13.5145C15.326 13.7566 15.2498 13.9231 15.0669 14.135C14.884 14.3468 14.6707 14.6192 14.503 14.7857C14.3049 14.9824 14.122 15.1792 14.3354 15.5575C14.564 15.9358 15.3108 17.1616 16.4386 18.1604C17.8713 19.4316 19.0906 19.8401 19.4716 20.0217C19.8527 20.2185 20.0813 20.1882 20.2947 19.9309C20.508 19.6888 21.2244 18.8414 21.4835 18.463C21.7426 18.0998 21.9864 18.1604 22.337 18.2814Z" fill="#66803A"/>
</svg>
