<svg width="35" height="33" viewBox="0 0 35 33" fill="none" xmlns="http://www.w3.org/2000/svg">
<rect x="0.5" y="0.5" width="33.0311" height="32" rx="3.5" stroke="#66803A"/>
<g clip-path="url(#clip0_166_8922)">
<path d="M15.1207 18.6872L14.8295 22.5262C15.2461 22.5262 15.4265 22.3585 15.6429 22.157L17.596 20.4073L21.6431 23.1855C22.3853 23.5733 22.9082 23.3691 23.1085 22.5455L25.7649 10.8772L25.7657 10.8765C26.0011 9.84803 25.3689 9.44584 24.6457 9.69815L9.03104 15.302C7.96537 15.6897 7.9815 16.2466 8.84988 16.4989L12.8419 17.6628L22.1147 12.224C22.5511 11.9532 22.9478 12.103 22.6215 12.3739L15.1207 18.6872Z" fill="#66803A"/>
</g>
<defs>
<clipPath id="clip0_166_8922">
<rect width="17.6023" height="16.5" fill="white" transform="translate(8.21484 8.25)"/>
</clipPath>
</defs>
</svg>
