<svg width="21" height="21" viewBox="0 0 21 21" fill="none" xmlns="http://www.w3.org/2000/svg">
<path d="M12.2935 5.25C13.1481 5.41674 13.9335 5.83473 14.5493 6.45044C15.165 7.06616 15.583 7.85161 15.7497 8.70625M12.2935 1.75C14.0691 1.94726 15.7248 2.7424 16.9889 4.00488C18.253 5.26736 19.0502 6.92213 19.2497 8.6975M8.94831 12.1302C7.89693 11.0788 7.06674 9.88999 6.45774 8.62158C6.40536 8.51247 6.37917 8.45792 6.35904 8.38889C6.28754 8.14358 6.3389 7.84235 6.48766 7.6346C6.52952 7.57614 6.57953 7.52613 6.67956 7.42611C6.98546 7.1202 7.13841 6.96725 7.23841 6.81344C7.61553 6.23341 7.61553 5.48566 7.23841 4.90563C7.13841 4.75182 6.98546 4.59887 6.67956 4.29296L6.50904 4.12245C6.04403 3.65744 5.81153 3.42493 5.56182 3.29863C5.0652 3.04745 4.47872 3.04745 3.9821 3.29863C3.7324 3.42494 3.49989 3.65744 3.03488 4.12245L2.89695 4.26038C2.43353 4.7238 2.20182 4.95551 2.02485 5.27054C1.82848 5.62011 1.68729 6.16304 1.68848 6.56398C1.68956 6.92531 1.75965 7.17226 1.89983 7.66615C2.65318 10.3204 4.07459 12.8249 6.16408 14.9144C8.25356 17.0039 10.7581 18.4253 13.4123 19.1787C13.9062 19.3188 14.1532 19.3889 14.5145 19.39C14.9155 19.3912 15.4584 19.25 15.808 19.0536C16.123 18.8767 16.3547 18.645 16.8181 18.1815L16.956 18.0436C17.4211 17.5786 17.6536 17.3461 17.7799 17.0964C18.031 16.5998 18.031 16.0133 17.7799 15.5167C17.6536 15.267 17.4211 15.0345 16.956 14.5695L16.7855 14.3989C16.4796 14.093 16.3267 13.9401 16.1729 13.8401C15.5928 13.463 14.8451 13.463 14.2651 13.8401C14.1112 13.9401 13.9583 14.093 13.6524 14.3989C13.5524 14.499 13.5024 14.549 13.4439 14.5908C13.2361 14.7396 12.9349 14.791 12.6896 14.7195C12.6206 14.6993 12.566 14.6731 12.4569 14.6208C11.1885 14.0118 9.99969 13.1816 8.94831 12.1302Z" stroke="#111111" stroke-width="1.5" stroke-linecap="round" stroke-linejoin="round"/>
</svg>
