<svg width="38" height="38" viewBox="0 0 38 38" fill="none" xmlns="http://www.w3.org/2000/svg">
<path d="M37.5 19C37.5 29.2173 29.2173 37.5 19 37.5C16.5383 37.5 14.19 37.0195 12.0431 36.1475L11.9902 36.126C11.6188 35.9751 11.3723 35.8749 11.1604 35.8274C10.9577 35.782 10.7975 35.7643 10.5897 35.7642C10.3727 35.7642 10.1438 35.8024 9.80566 35.8588L9.76118 35.8662L2.25007 37.1181C1.84749 37.1852 1.57867 37.2295 1.37422 37.2449C1.17213 37.2602 1.09796 37.2405 1.06515 37.2264C0.934146 37.1702 0.829753 37.0659 0.773565 36.9349C0.759493 36.902 0.739808 36.8279 0.755062 36.6258C0.770495 36.4213 0.814812 36.1525 0.881909 35.7499L2.13376 28.2388L2.14116 28.1944C2.1976 27.8562 2.2358 27.6273 2.23577 27.4103C2.23574 27.2025 2.218 27.0423 2.17255 26.8396C2.12507 26.6277 2.0249 26.3812 1.87398 26.0098L1.8525 25.9569C0.980551 23.81 0.5 21.4617 0.5 19C0.5 8.78273 8.78273 0.5 19 0.5C29.2173 0.5 37.5 8.78273 37.5 19Z" stroke="#494949" stroke-linecap="round" stroke-linejoin="round"/>
<path d="M24.6392 21.0514C25.025 21.2082 27.1642 22.2538 27.6025 22.4629C28.0409 22.672 28.3039 22.7591 28.4266 22.9508C28.5494 23.1425 28.5494 23.9964 28.1811 25.0071C27.8305 26.0178 26.0946 26.9413 25.2529 27.0633C24.4989 27.1679 23.5521 27.2202 22.5175 26.8891C21.8863 26.6974 21.0797 26.436 20.0452 25.9829C15.6967 24.1183 12.8386 19.7618 12.6282 19.4656L12.6247 19.4611C12.4014 19.1653 10.8572 17.1194 10.8572 15.0046C10.8572 12.8786 11.9794 11.833 12.3651 11.3974C12.7684 10.9617 13.2243 10.8572 13.5224 10.8572H14.3641C14.6271 10.8746 14.9953 10.77 15.346 11.6065C15.6967 12.4778 16.5734 14.6038 16.6786 14.8129C16.7838 15.022 16.8539 15.2659 16.7137 15.5622C16.5734 15.841 16.4857 16.0327 16.2753 16.2767C16.0649 16.5206 15.8194 16.8343 15.6265 17.026C15.3986 17.2525 15.1882 17.479 15.4337 17.9147C15.6967 18.3503 16.5559 19.7618 17.8534 20.912C19.5016 22.3757 20.9044 22.8462 21.3427 23.0554C21.7811 23.2819 22.0441 23.247 22.2896 22.9508C22.5351 22.672 23.3592 21.6961 23.6573 21.2605C23.9554 20.8423 24.2359 20.912 24.6392 21.0514Z" fill="#494949"/>
</svg>
