<svg width="39" height="38" viewBox="0 0 39 38" fill="none" xmlns="http://www.w3.org/2000/svg">
<rect x="0.5" y="0.5" width="38" height="37" rx="3.5" stroke="#494949"/>
<g clip-path="url(#clip0_245_580)">
<path d="M17.3284 21.5187L16.9947 25.9393C17.4721 25.9393 17.6789 25.7462 17.9268 25.5142L20.1651 23.4994L24.8031 26.6985C25.6537 27.145 26.253 26.9099 26.4825 25.9615L29.5268 12.5253L29.5277 12.5245C29.7975 11.3402 29.0729 10.8771 28.2442 11.1676L10.3496 17.6205C9.1283 18.067 9.14679 18.7082 10.142 18.9988L14.7169 20.3391L25.3436 14.0762C25.8437 13.7643 26.2984 13.9369 25.9244 14.2488L17.3284 21.5187Z" fill="#494949"/>
</g>
<defs>
<clipPath id="clip0_245_580">
<rect width="20.1724" height="19" fill="white" transform="translate(9.41382 9.5)"/>
</clipPath>
</defs>
</svg>
