<svg width="1200" height="328" viewBox="0 0 1200 328" fill="none" xmlns="http://www.w3.org/2000/svg">
<rect y="163" width="1200" height="2" fill="white"/>
<rect y="163" width="1200" height="2" fill="url(#paint0_linear_169_9490)"/>
<circle cx="17" cy="164" r="17" fill="#ACCBEA"/>
<circle cx="300" cy="164" r="17" fill="#ACCBEA"/>
<circle cx="589" cy="164" r="17" fill="#ACCBEA"/>
<circle cx="877" cy="164" r="17" fill="#ACCBEA"/>
<path d="M17 182L17 327" stroke="white" stroke-width="2" stroke-linecap="round" stroke-dasharray="4 4"/>
<path d="M589 182L589 327" stroke="white" stroke-width="2" stroke-linecap="round" stroke-dasharray="4 4"/>
<path d="M877 1L877 146" stroke="white" stroke-width="2" stroke-linecap="round" stroke-dasharray="4 4"/>
<path d="M300 1L300 146" stroke="white" stroke-width="2" stroke-linecap="round" stroke-dasharray="4 4"/>
<path d="M17 167.208H12.875C11.5957 167.208 10.9561 167.208 10.4356 167.366C9.26373 167.722 8.34668 168.639 7.9912 169.811C7.83331 170.331 7.83331 170.971 7.83331 172.25M20.6666 169.5L22.5 171.333L26.1666 167.667M19.2916 159.875C19.2916 162.153 17.4448 164 15.1666 164C12.8885 164 11.0416 162.153 11.0416 159.875C11.0416 157.597 12.8885 155.75 15.1666 155.75C17.4448 155.75 19.2916 157.597 19.2916 159.875Z" stroke="white" stroke-width="1.7" stroke-linecap="round" stroke-linejoin="round"/>
<path d="M301.833 163.083H296.333M298.167 166.75H296.333M303.667 159.417H296.333M307.333 159.233V168.767C307.333 170.307 307.333 171.077 307.034 171.665C306.77 172.183 306.349 172.603 305.832 172.867C305.244 173.167 304.473 173.167 302.933 173.167H297.067C295.527 173.167 294.756 173.167 294.168 172.867C293.651 172.603 293.23 172.183 292.966 171.665C292.667 171.077 292.667 170.307 292.667 168.767V159.233C292.667 157.693 292.667 156.923 292.966 156.335C293.23 155.817 293.651 155.397 294.168 155.133C294.756 154.833 295.527 154.833 297.067 154.833H302.933C304.473 154.833 305.244 154.833 305.832 155.133C306.349 155.397 306.77 155.817 307.034 156.335C307.333 156.923 307.333 157.693 307.333 159.233Z" stroke="white" stroke-width="1.7" stroke-linecap="round" stroke-linejoin="round"/>
<path d="M583.5 158.5L587.625 162.625M583.5 158.5H580.75L579.833 155.75L580.75 154.833L583.5 155.75V158.5ZM595.654 155.513L593.245 157.921C592.882 158.284 592.701 158.466 592.633 158.675C592.573 158.859 592.573 159.058 592.633 159.242C592.701 159.451 592.882 159.632 593.245 159.995L593.463 160.213C593.826 160.576 594.007 160.757 594.217 160.825C594.401 160.885 594.599 160.885 594.783 160.825C594.993 160.757 595.174 160.576 595.537 160.213L597.79 157.96C598.033 158.55 598.167 159.197 598.167 159.875C598.167 162.659 595.909 164.917 593.125 164.917C592.789 164.917 592.461 164.884 592.144 164.821C591.698 164.733 591.475 164.689 591.34 164.703C591.197 164.717 591.126 164.739 590.999 164.807C590.879 164.871 590.759 164.991 590.519 165.231L583.958 171.792C583.199 172.551 581.968 172.551 581.208 171.792C580.449 171.032 580.449 169.801 581.208 169.042L587.769 162.481C588.009 162.241 588.129 162.121 588.193 162.001C588.261 161.874 588.283 161.803 588.297 161.66C588.311 161.525 588.267 161.302 588.179 160.856C588.116 160.539 588.083 160.211 588.083 159.875C588.083 157.091 590.341 154.833 593.125 154.833C594.047 154.833 594.911 155.081 595.654 155.513ZM589 166.75L594.042 171.792C594.801 172.551 596.032 172.551 596.792 171.792C597.551 171.032 597.551 169.801 596.792 169.042L592.644 164.894C592.35 164.866 592.064 164.813 591.787 164.737C591.431 164.639 591.04 164.71 590.778 164.972L589 166.75Z" stroke="white" stroke-width="1.7" stroke-linecap="round" stroke-linejoin="round"/>
<path d="M874.25 172.25V165.467C874.25 164.953 874.25 164.697 874.35 164.501C874.438 164.328 874.578 164.188 874.751 164.1C874.947 164 875.203 164 875.717 164H878.283C878.797 164 879.053 164 879.25 164.1C879.422 164.188 879.562 164.328 879.65 164.501C879.75 164.697 879.75 164.953 879.75 165.467V172.25M867.833 161.708L876.12 155.493C876.436 155.257 876.593 155.138 876.767 155.093C876.92 155.052 877.08 155.052 877.233 155.093C877.407 155.138 877.564 155.257 877.88 155.493L886.167 161.708M869.667 160.333V169.317C869.667 170.343 869.667 170.857 869.867 171.249C870.042 171.594 870.323 171.874 870.668 172.05C871.06 172.25 871.573 172.25 872.6 172.25H881.4C882.427 172.25 882.94 172.25 883.332 172.05C883.677 171.874 883.958 171.594 884.134 171.249C884.333 170.857 884.333 170.343 884.333 169.317V160.333L878.76 156.153C878.129 155.68 877.813 155.443 877.467 155.352C877.161 155.272 876.839 155.272 876.533 155.352C876.187 155.443 875.871 155.68 875.24 156.153L869.667 160.333Z" stroke="white" stroke-width="1.7" stroke-linecap="round" stroke-linejoin="round"/>
<defs>
<linearGradient id="paint0_linear_169_9490" x1="0" y1="164" x2="1200" y2="164" gradientUnits="userSpaceOnUse">
<stop offset="0.808999" stop-color="white"/>
<stop offset="1" stop-color="#66803A"/>
</linearGradient>
</defs>
</svg>
