<svg width="361" height="790" viewBox="0 0 361 790" fill="none" xmlns="http://www.w3.org/2000/svg">
<rect x="22" width="790" height="1.99997" transform="rotate(90 22 0)" fill="white"/>
<rect x="22" width="790" height="1.99997" transform="rotate(90 22 0)" fill="url(#paint0_linear_176_12155)"/>
<circle cx="21" cy="21" r="21" fill="#ACCBEA"/>
<circle cx="21" cy="228" r="21" fill="#ACCBEA"/>
<circle cx="21" cy="435" r="21" fill="#ACCBEA"/>
<circle cx="21" cy="623" r="21" fill="#ACCBEA"/>
<path d="M43 21L360 21" stroke="white" stroke-width="2" stroke-linecap="round" stroke-dasharray="4 4"/>
<path d="M43 228L360 228" stroke="white" stroke-width="2" stroke-linecap="round" stroke-dasharray="4 4"/>
<path d="M43 435L360 435" stroke="white" stroke-width="2" stroke-linecap="round" stroke-dasharray="4 4"/>
<path d="M43 623L360 623" stroke="white" stroke-width="2" stroke-linecap="round" stroke-dasharray="4 4"/>
<path d="M21 25.0833H15.75C14.1219 25.0833 13.3078 25.0833 12.6453 25.2843C11.1539 25.7367 9.98672 26.9039 9.53429 28.3953C9.33334 29.0578 9.33334 29.8718 9.33334 31.5M25.6667 28L28 30.3333L32.6667 25.6667M23.9167 15.75C23.9167 18.6495 21.5662 21 18.6667 21C15.7672 21 13.4167 18.6495 13.4167 15.75C13.4167 12.8505 15.7672 10.5 18.6667 10.5C21.5662 10.5 23.9167 12.8505 23.9167 15.75Z" stroke="white" stroke-width="1.7" stroke-linecap="round" stroke-linejoin="round"/>
<path d="M23.3333 226.833H16.3333M18.6667 231.5H16.3333M25.6667 222.167H16.3333M30.3333 221.933V234.067C30.3333 236.027 30.3333 237.007 29.9518 237.756C29.6163 238.414 29.0809 238.95 28.4223 239.285C27.6736 239.667 26.6935 239.667 24.7333 239.667H17.2667C15.3065 239.667 14.3264 239.667 13.5777 239.285C12.9191 238.95 12.3837 238.414 12.0481 237.756C11.6667 237.007 11.6667 236.027 11.6667 234.067V221.933C11.6667 219.973 11.6667 218.993 12.0481 218.244C12.3837 217.586 12.9191 217.05 13.5777 216.715C14.3264 216.333 15.3065 216.333 17.2667 216.333H24.7333C26.6935 216.333 27.6736 216.333 28.4223 216.715C29.0809 217.05 29.6163 217.586 29.9518 218.244C30.3333 218.993 30.3333 219.973 30.3333 221.933Z" stroke="white" stroke-width="1.7" stroke-linecap="round" stroke-linejoin="round"/>
<path d="M14.5 428.5L19.375 433.375M14.5 428.5H11.25L10.1667 425.25L11.25 424.167L14.5 425.25V428.5ZM28.8639 424.969L26.0173 427.816C25.5883 428.245 25.3738 428.46 25.2934 428.707C25.2227 428.924 25.2227 429.159 25.2934 429.376C25.3738 429.624 25.5883 429.838 26.0173 430.267L26.2743 430.524C26.7034 430.953 26.9179 431.168 27.1652 431.248C27.3828 431.319 27.6172 431.319 27.8348 431.248C28.0821 431.168 28.2966 430.953 28.7256 430.524L31.3884 427.862C31.6752 428.559 31.8333 429.324 31.8333 430.125C31.8333 433.416 29.1657 436.083 25.875 436.083C25.4783 436.083 25.0906 436.045 24.7156 435.971C24.1889 435.867 23.9256 435.815 23.7659 435.831C23.5962 435.848 23.5126 435.873 23.3622 435.954C23.2208 436.029 23.0789 436.171 22.7951 436.455L15.0417 444.208C14.1442 445.106 12.6891 445.106 11.7917 444.208C10.8942 443.311 10.8942 441.856 11.7917 440.958L19.5451 433.205C19.8289 432.921 19.9708 432.779 20.0465 432.638C20.1269 432.487 20.1524 432.404 20.1693 432.234C20.1852 432.074 20.1333 431.811 20.0294 431.284C19.9554 430.909 19.9167 430.522 19.9167 430.125C19.9167 426.834 22.5843 424.167 25.875 424.167C26.9643 424.167 27.9853 424.459 28.8639 424.969ZM21 438.25L26.9583 444.208C27.8558 445.106 29.3108 445.106 30.2083 444.208C31.1058 443.311 31.1058 441.856 30.2083 440.958L25.3066 436.057C24.9596 436.024 24.6213 435.961 24.2942 435.871C23.8727 435.756 23.4103 435.84 23.1013 436.149L21 438.25Z" stroke="white" stroke-width="1.7" stroke-linecap="round" stroke-linejoin="round"/>
<path d="M17.75 632.75V624.733C17.75 624.127 17.75 623.823 17.8681 623.592C17.9719 623.388 18.1377 623.222 18.3415 623.118C18.5732 623 18.8766 623 19.4833 623H22.5167C23.1234 623 23.4267 623 23.6585 623.118C23.8623 623.222 24.0281 623.388 24.1319 623.592C24.25 623.823 24.25 624.127 24.25 624.733V632.75M10.1667 620.292L19.96 612.947C20.3329 612.667 20.5194 612.527 20.7242 612.473C20.905 612.426 21.095 612.426 21.2758 612.473C21.4806 612.527 21.667 612.667 22.04 612.947L31.8333 620.292M12.3333 618.667V629.283C12.3333 630.497 12.3333 631.104 12.5695 631.567C12.7772 631.975 13.1087 632.306 13.5163 632.514C13.9798 632.75 14.5865 632.75 15.8 632.75H26.2C27.4134 632.75 28.0202 632.75 28.4836 632.514C28.8913 632.306 29.2228 631.975 29.4305 631.567C29.6667 631.104 29.6667 630.497 29.6667 629.283V618.667L23.08 613.727C22.3341 613.167 21.9612 612.888 21.5516 612.78C21.19 612.685 20.81 612.685 20.4484 612.78C20.0388 612.888 19.6659 613.167 18.92 613.727L12.3333 618.667Z" stroke="white" stroke-width="1.7" stroke-linecap="round" stroke-linejoin="round"/>
<defs>
<linearGradient id="paint0_linear_176_12155" x1="22" y1="0.999983" x2="812" y2="0.999983" gradientUnits="userSpaceOnUse">
<stop offset="0.808999" stop-color="white"/>
<stop offset="1" stop-color="#66803A"/>
</linearGradient>
</defs>
</svg>
